<svg width="94" height="94" viewBox="0 0 94 94" fill="none" xmlns="http://www.w3.org/2000/svg">
<path d="M45.7271 85.677C45.3354 85.6117 44.9437 85.5138 44.5521 85.3833C35.7396 82.4458 28.7222 77.0107 23.5 69.0782C18.2778 61.1456 15.6667 52.6112 15.6667 43.4749V24.9687C15.6667 23.3367 16.1406 21.868 17.0884 20.5624C18.0362 19.2569 19.2595 18.3104 20.7583 17.7229L44.2583 8.91036C45.1722 8.58397 46.0861 8.42078 47 8.42078C47.9139 8.42078 48.8278 8.58397 49.7417 8.91036L73.2417 17.7229C74.743 18.3104 75.9677 19.2569 76.9155 20.5624C77.8633 21.868 78.3359 23.3367 78.3333 24.9687V43.4749C78.3333 52.6138 75.7222 61.1496 70.5 69.0821C65.2778 77.0147 58.2604 82.4484 49.4479 85.3833C49.0562 85.5138 48.6646 85.6117 48.2729 85.677C47.8812 85.7423 47.4569 85.7749 47 85.7749C46.543 85.7749 46.1187 85.7423 45.7271 85.677ZM47 77.9416C53.7889 75.7874 59.4028 71.4791 63.8417 65.0166C68.2805 58.5541 70.5 51.3736 70.5 43.4749V24.9687L47 16.1562L23.5 24.9687V43.4749C23.5 51.3736 25.7194 58.5541 30.1583 65.0166C34.5972 71.4791 40.2111 75.7874 47 77.9416Z" fill="#EBEBEB"/>
</svg>
