<svg width="33" height="33" viewBox="0 0 33 33" fill="none" xmlns="http://www.w3.org/2000/svg">
<path d="M6.63437 16.5344L11.9625 21.8625C12.2146 22.1146 12.3406 22.4354 12.3406 22.825C12.3406 23.2146 12.2146 23.5354 11.9625 23.7875C11.7104 24.0396 11.3896 24.1656 11 24.1656C10.6104 24.1656 10.2896 24.0396 10.0375 23.7875L3.7125 17.4625C3.575 17.325 3.47737 17.176 3.41962 17.0156C3.36187 16.8552 3.33391 16.6833 3.33575 16.5C3.33758 16.3167 3.36646 16.1448 3.42237 15.9844C3.47829 15.8239 3.57546 15.675 3.71387 15.5375L10.0389 9.21249C10.3139 8.93749 10.6407 8.79999 11.0192 8.79999C11.3978 8.79999 11.7242 8.93749 11.9982 9.21249C12.2723 9.48749 12.4098 9.81428 12.4107 10.1929C12.4117 10.5714 12.2742 10.8978 11.9982 11.1719L6.63437 16.5344ZM26.3656 16.4656L21.0375 11.1375C20.7854 10.8854 20.6594 10.5646 20.6594 10.175C20.6594 9.7854 20.7854 9.46457 21.0375 9.21249C21.2896 8.9604 21.6104 8.83436 22 8.83436C22.3896 8.83436 22.7104 8.9604 22.9625 9.21249L29.2875 15.5375C29.425 15.675 29.5226 15.8239 29.5804 15.9844C29.6381 16.1448 29.6665 16.3167 29.6656 16.5C29.6647 16.6833 29.6363 16.8552 29.5804 17.0156C29.5245 17.176 29.4268 17.325 29.2875 17.4625L22.9625 23.7875C22.6875 24.0625 22.3667 24.1945 22 24.1835C21.6333 24.1725 21.3125 24.029 21.0375 23.7531C20.7625 23.4772 20.625 23.1509 20.625 22.7741C20.625 22.3974 20.7625 22.0706 21.0375 21.7937L26.3656 16.4656Z" fill="black"/>
</svg>
