<svg width="94" height="94" viewBox="0 0 94 94" fill="none" xmlns="http://www.w3.org/2000/svg">
<path d="M31.3333 55.7733C40.3573 55.7733 48.128 57.3526 53.7367 61.1314C59.5459 65.048 62.6667 71.0828 62.6667 78.96C62.6162 79.7568 62.2642 80.5044 61.6821 81.0508C61.1 81.5972 60.3317 81.9014 59.5333 81.9014C58.735 81.9014 57.9666 81.5972 57.3845 81.0508C56.8025 80.5044 56.4504 79.7568 56.4 78.96C56.4 72.9566 54.1565 68.9584 50.2399 66.3202C46.1164 63.5503 39.7933 62.04 31.3333 62.04C22.8733 62.04 16.544 63.5503 12.4268 66.3264C8.51013 68.9647 6.26667 72.9628 6.26667 78.9663C6.21625 79.763 5.8642 80.5107 5.28212 81.0571C4.70005 81.6035 3.93168 81.9076 3.13333 81.9076C2.33498 81.9076 1.56661 81.6035 0.984542 81.0571C0.40247 80.5107 0.0504166 79.763 0 78.9663C0 71.0828 3.11453 65.048 8.92373 61.1314C14.5324 57.3526 22.3093 55.7733 31.3333 55.7733ZM62.51 55.7733C71.5277 55.7733 79.3047 57.3526 84.9133 61.1314C90.7225 65.048 93.8433 71.0828 93.8433 78.9663C93.8433 79.7973 93.5132 80.5943 92.9256 81.1819C92.338 81.7695 91.541 82.0996 90.71 82.0996C89.879 82.0996 89.082 81.7695 88.4944 81.1819C87.9068 80.5943 87.5767 79.7973 87.5767 78.9663C87.5767 72.9628 85.3332 68.9647 81.4103 66.3264C78.1641 64.1394 73.5581 62.7544 67.6111 62.2531C66.1297 59.8333 64.2917 57.6509 62.1591 55.7796L62.51 55.7733ZM31.3333 11.5934C36.4826 11.7231 41.3773 13.8598 44.9734 17.5476C48.5695 21.2354 50.5822 26.1825 50.5822 31.3334C50.5822 36.4842 48.5695 41.4313 44.9734 45.1191C41.3773 48.8069 36.4826 50.9436 31.3333 51.0733C26.098 51.0733 21.077 48.9936 17.375 45.2916C13.6731 41.5897 11.5933 36.5687 11.5933 31.3334C11.5933 26.098 13.6731 21.077 17.375 17.3751C21.077 13.6731 26.098 11.5934 31.3333 11.5934ZM62.51 11.5934C67.7454 11.5934 72.7663 13.6731 76.4683 17.3751C80.1702 21.077 82.25 26.098 82.25 31.3334C82.25 36.5687 80.1702 41.5897 76.4683 45.2916C72.7663 48.9936 67.7454 51.0733 62.51 51.0733C59.2263 51.0733 56.1431 50.2587 53.4233 48.8424C54.7348 47.1933 55.8572 45.4024 56.7697 43.5032C58.8233 44.4747 61.0892 44.9111 63.3567 44.772C65.6242 44.6328 67.8197 43.9226 69.7391 42.7072C71.6584 41.4919 73.2393 39.811 74.3348 37.8208C75.4302 35.8306 76.0047 33.5957 76.0047 31.324C76.0047 29.0522 75.4302 26.8173 74.3348 24.8271C73.2393 22.8369 71.6584 21.156 69.7391 19.9407C67.8197 18.7253 65.6242 18.0151 63.3567 17.8759C61.0892 17.7368 58.8233 18.1732 56.7697 19.1447C55.8544 17.2496 54.7299 15.4629 53.4171 13.818C56.2195 12.3474 59.3388 11.5837 62.5037 11.5934M31.3333 17.86C27.8311 17.9668 24.5081 19.4332 22.0686 21.9483C19.6291 24.4633 18.2647 27.8295 18.2647 31.3334C18.2647 34.8372 19.6291 38.2034 22.0686 40.7184C24.5081 43.2335 27.8311 44.6999 31.3333 44.8067C34.9067 44.8067 38.3337 43.3872 40.8604 40.8604C43.3872 38.3337 44.8067 34.9067 44.8067 31.3334C44.8067 27.76 43.3872 24.333 40.8604 21.8063C38.3337 19.2795 34.9067 17.86 31.3333 17.86Z" fill="#EBEBEB"/>
</svg>
