<svg width="74" height="77" viewBox="0 0 74 77" fill="none" xmlns="http://www.w3.org/2000/svg">
<path d="M57.9982 74.7635L57.9627 74.7694L57.7525 74.873L57.6933 74.8848L57.6519 74.873L57.4417 74.7664C57.4102 74.7585 57.3865 74.7644 57.3707 74.7842L57.3589 74.8138L57.3085 76.0807L57.3233 76.1399L57.3529 76.1783L57.6608 76.3974L57.7052 76.4092L57.7407 76.3974L58.0485 76.1783L58.0841 76.131L58.0959 76.0807L58.0456 74.8167C58.0377 74.7852 58.0219 74.7674 57.9982 74.7635ZM58.7797 74.429L58.7382 74.4349L58.1936 74.7102L58.164 74.7398L58.1551 74.7723L58.2084 76.0451L58.2232 76.0807L58.2469 76.1043L58.8418 76.3767C58.8793 76.3865 58.9079 76.3786 58.9277 76.353L58.9395 76.3115L58.8389 74.4941C58.829 74.4566 58.8093 74.4349 58.7797 74.429ZM56.6633 74.4349C56.6502 74.427 56.6346 74.4244 56.6197 74.4277C56.6048 74.431 56.5918 74.44 56.5833 74.4527L56.5656 74.4941L56.4649 76.3115C56.4669 76.3471 56.4837 76.3707 56.5153 76.3826L56.5597 76.3767L57.1546 76.1014L57.1842 76.0777L57.1931 76.0451L57.2464 74.7723L57.2375 74.7368L57.2079 74.7072L56.6633 74.4349Z" fill="#EBEBEB"/>
<path d="M37 0C57.4351 0 74 16.5649 74 37C74 57.4351 57.4351 74 37 74C16.5649 74 0 57.4351 0 37C0 16.5649 16.5649 0 37 0ZM27.8351 40.7C28.1681 48.0334 29.4557 54.4862 31.2909 59.2074C32.3639 61.9676 33.5553 63.9508 34.6838 65.1792C35.8086 66.4039 36.5967 66.6 37 66.6C37.4033 66.6 38.1914 66.4039 39.3162 65.1792C40.4447 63.9508 41.6361 61.9676 42.7091 59.2074C44.5443 54.4862 45.8356 48.0334 46.1649 40.7H27.8351ZM7.6368 40.7C8.28284 45.8322 10.2625 50.7056 13.3786 54.8344C16.4947 58.9633 20.6384 62.2034 25.3968 64.232C25.0358 63.463 24.7013 62.6819 24.3941 61.8899C22.1778 56.1919 20.757 48.7993 20.424 40.7H7.6368ZM53.576 40.7C53.243 48.7993 51.8222 56.1919 49.6059 61.8899C49.2926 62.699 48.9584 63.4797 48.6032 64.232C53.3616 62.2034 57.5053 58.9633 60.6214 54.8344C63.7375 50.7056 65.7172 45.8322 66.3632 40.7H53.576ZM48.6032 9.7643C48.9584 10.5191 49.2926 11.301 49.6059 12.1101C51.8222 17.8081 53.2393 25.2007 53.576 33.3H66.3632C65.7178 28.1671 63.7383 23.293 60.6222 19.1635C57.5061 15.0339 53.3621 11.7932 48.6032 9.7643ZM37 7.4C36.5967 7.4 35.8086 7.5961 34.6838 8.8208C33.5553 10.0492 32.3639 12.0324 31.2909 14.7926C29.4557 19.5138 28.1681 25.9666 27.8351 33.3H46.1649C45.8319 25.9666 44.5443 19.5138 42.7091 14.7926C41.6361 12.0324 40.4447 10.0492 39.3162 8.8208C38.1914 7.5961 37.4033 7.4 37 7.4ZM25.3931 9.7643C20.6349 11.7937 16.4917 15.0347 13.3762 19.1642C10.2607 23.2936 8.28188 28.1675 7.6368 33.3H20.4277C20.7607 25.2007 22.1778 17.8081 24.3941 12.1101C24.7074 11.301 25.0404 10.5191 25.3931 9.7643Z" fill="#EBEBEB"/>
</svg>
