<svg width="33" height="33" viewBox="0 0 33 33" fill="none" xmlns="http://www.w3.org/2000/svg">
<path d="M11 19.58C14.168 19.58 16.896 20.1344 18.865 21.461C20.9044 22.836 22 24.9546 22 27.72C21.9823 27.9997 21.8587 28.2622 21.6544 28.454C21.45 28.6458 21.1803 28.7526 20.9 28.7526C20.6197 28.7526 20.35 28.6458 20.1456 28.454C19.9413 28.2622 19.8177 27.9997 19.8 27.72C19.8 25.6124 19.0124 24.2088 17.6374 23.2826C16.1898 22.3102 13.97 21.78 11 21.78C8.03 21.78 5.808 22.3102 4.3626 23.2848C2.9876 24.211 2.2 25.6146 2.2 27.7222C2.1823 28.0019 2.05871 28.2644 1.85436 28.4562C1.65002 28.648 1.38027 28.7548 1.1 28.7548C0.819727 28.7548 0.549982 28.648 0.345637 28.4562C0.141293 28.2644 0.0176994 28.0019 0 27.7222C0 24.9546 1.0934 22.836 3.1328 21.461C5.1018 20.1344 7.832 19.58 11 19.58ZM21.945 19.58C25.1108 19.58 27.841 20.1344 29.81 21.461C31.8494 22.836 32.945 24.9546 32.945 27.7222C32.945 28.0139 32.8291 28.2937 32.6228 28.5C32.4165 28.7063 32.1367 28.8222 31.845 28.8222C31.5533 28.8222 31.2735 28.7063 31.0672 28.5C30.8609 28.2937 30.745 28.0139 30.745 27.7222C30.745 25.6146 29.9574 24.211 28.5802 23.2848C27.4406 22.517 25.8236 22.0308 23.7358 21.8548C23.2158 21.0053 22.5705 20.2391 21.8218 19.5822L21.945 19.58ZM11 4.06998C12.8077 4.11553 14.5261 4.86565 15.7885 6.16031C17.051 7.45497 17.7576 9.19169 17.7576 11C17.7576 12.8083 17.051 14.545 15.7885 15.8396C14.5261 17.1343 12.8077 17.8844 11 17.93C9.16205 17.93 7.39938 17.1999 6.09975 15.9002C4.80012 14.6006 4.07 12.8379 4.07 11C4.07 9.16203 4.80012 7.39936 6.09975 6.09973C7.39938 4.8001 9.16205 4.06998 11 4.06998ZM21.945 4.06998C23.7829 4.06998 25.5456 4.8001 26.8452 6.09973C28.1449 7.39936 28.875 9.16203 28.875 11C28.875 12.8379 28.1449 14.6006 26.8452 15.9002C25.5456 17.1999 23.7829 17.93 21.945 17.93C20.7922 17.93 19.7098 17.644 18.755 17.1468C19.2154 16.5678 19.6095 15.9391 19.9298 15.2724C20.6507 15.6134 21.4462 15.7667 22.2422 15.7178C23.0383 15.6689 23.809 15.4196 24.4829 14.9929C25.1567 14.5663 25.7117 13.9762 26.0963 13.2775C26.4808 12.5788 26.6825 11.7942 26.6825 10.9967C26.6825 10.1991 26.4808 9.41455 26.0963 8.71586C25.7117 8.01717 25.1567 7.42707 24.4829 7.00041C23.809 6.57376 23.0383 6.32442 22.2422 6.27556C21.4462 6.22671 20.6507 6.37993 19.9298 6.72098C19.6085 6.05568 19.2137 5.42844 18.7528 4.85098C19.7366 4.33468 20.8317 4.06658 21.9428 4.06998M11 6.26998C9.7705 6.30748 8.60391 6.82226 7.74748 7.70521C6.89105 8.58817 6.41208 9.7699 6.41208 11C6.41208 12.2301 6.89105 13.4118 7.74748 14.2947C8.60391 15.1777 9.7705 15.6925 11 15.73C12.2545 15.73 13.4576 15.2316 14.3446 14.3446C15.2317 13.4575 15.73 12.2545 15.73 11C15.73 9.7455 15.2317 8.54241 14.3446 7.65536C13.4576 6.76832 12.2545 6.26998 11 6.26998Z" fill="black"/>
</svg>
