<svg width="28" height="28" viewBox="0 0 28 28" fill="none" xmlns="http://www.w3.org/2000/svg">
<path d="M4.81251 23.855H23.1875C25.6365 23.855 26.8675 22.6485 26.8675 20.2345V7.77747C26.8675 5.36347 25.6365 4.14447 23.1875 4.14447H4.81251C2.36351 4.14447 1.13251 5.36347 1.13251 7.77747V20.2345C1.13251 22.6485 2.36301 23.855 4.81251 23.855ZM3.01951 7.88347C3.01951 6.66447 3.67601 6.03197 4.84751 6.03197H23.164C24.324 6.03197 24.9805 6.66447 24.9805 7.88347V8.86747H3.01951V7.88347ZM4.84751 21.9695C3.67551 21.9695 3.01951 21.348 3.01951 20.1295V11.5275H24.9805V20.129C24.9805 21.3475 24.324 21.969 23.164 21.969L4.84751 21.9695ZM6.19501 18.5H9.06651C9.75801 18.5 10.215 18.043 10.215 17.375V15.207C10.215 14.551 9.75801 14.082 9.06651 14.082H6.19501C5.50351 14.082 5.04651 14.551 5.04651 15.207V17.375C5.04651 18.043 5.50351 18.5 6.19501 18.5Z" fill="black"/>
</svg>
