<svg width="33" height="33" viewBox="0 0 33 33" fill="none" xmlns="http://www.w3.org/2000/svg">
<path d="M16.0531 30.0781C15.9156 30.0552 15.7781 30.0208 15.6406 29.975C12.5468 28.9437 10.0833 27.0357 8.24994 24.2509C6.41661 21.466 5.49994 18.4699 5.49994 15.2625V8.76561C5.49994 8.1927 5.66631 7.67707 5.99906 7.21874C6.33181 6.7604 6.76127 6.42811 7.28744 6.22186L15.5374 3.12811C15.8583 3.01353 16.1791 2.95624 16.4999 2.95624C16.8208 2.95624 17.1416 3.01353 17.4624 3.12811L25.7124 6.22186C26.2395 6.42811 26.6694 6.7604 27.0022 7.21874C27.3349 7.67707 27.5009 8.1927 27.4999 8.76561V15.2625C27.4999 18.4708 26.5833 21.4674 24.7499 24.2522C22.9166 27.0371 20.4531 28.9447 17.3593 29.975C17.2218 30.0208 17.0843 30.0552 16.9468 30.0781C16.8093 30.101 16.6604 30.1125 16.4999 30.1125C16.3395 30.1125 16.1906 30.101 16.0531 30.0781ZM16.4999 27.3625C18.8833 26.6062 20.8541 25.0937 22.4124 22.825C23.9708 20.5562 24.7499 18.0354 24.7499 15.2625V8.76561L16.4999 5.67186L8.24994 8.76561V15.2625C8.24994 18.0354 9.02911 20.5562 10.5874 22.825C12.1458 25.0937 14.1166 26.6062 16.4999 27.3625Z" fill="black"/>
</svg>
