<svg width="94" height="94" viewBox="0 0 94 94" fill="none" xmlns="http://www.w3.org/2000/svg">
<path d="M18.8979 47.0979L34.075 62.275C34.793 62.993 35.1521 63.9069 35.1521 65.0167C35.1521 66.1264 34.793 67.0403 34.075 67.7583C33.3569 68.4764 32.4431 68.8354 31.3333 68.8354C30.2236 68.8354 29.3097 68.4764 28.5917 67.7583L10.575 49.7417C10.1833 49.35 9.90524 48.9257 9.74074 48.4687C9.57624 48.0118 9.49661 47.5222 9.50183 47C9.50705 46.4778 9.5893 45.9882 9.74858 45.5312C9.90786 45.0743 10.1846 44.65 10.5789 44.2583L28.5956 26.2416C29.3789 25.4583 30.3098 25.0667 31.3882 25.0667C32.4665 25.0667 33.3961 25.4583 34.1768 26.2416C34.9576 27.025 35.3492 27.9558 35.3518 29.0342C35.3544 30.1126 34.9628 31.0422 34.1768 31.8229L18.8979 47.0979ZM75.1021 46.9021L59.925 31.725C59.2069 31.0069 58.8479 30.093 58.8479 28.9833C58.8479 27.8736 59.2069 26.9597 59.925 26.2416C60.6431 25.5236 61.5569 25.1646 62.6667 25.1646C63.7764 25.1646 64.6903 25.5236 65.4083 26.2416L83.425 44.2583C83.8167 44.65 84.0947 45.0743 84.2593 45.5312C84.4238 45.9882 84.5047 46.4778 84.5021 47C84.4995 47.5222 84.4185 48.0118 84.2593 48.4687C84.1 48.9257 83.8219 49.35 83.425 49.7417L65.4083 67.7583C64.625 68.5417 63.7111 68.9177 62.6667 68.8863C61.6222 68.855 60.7083 68.4464 59.925 67.6604C59.1417 66.8745 58.75 65.9449 58.75 64.8717C58.75 63.7986 59.1417 62.8677 59.925 62.0792L75.1021 46.9021Z" fill="#EBEBEB"/>
</svg>
