<svg width="94" height="94" viewBox="0 0 94 94" fill="none" xmlns="http://www.w3.org/2000/svg">
<path d="M16.1562 80.0847H77.8438C86.0654 80.0847 90.198 76.0343 90.198 67.9301V26.1102C90.198 18.0061 86.0654 13.9137 77.8438 13.9137H16.1562C7.93461 13.9137 3.80196 18.0061 3.80196 26.1102V67.9301C3.80196 76.0343 7.93293 80.0847 16.1562 80.0847ZM10.1369 26.4661C10.1369 22.3737 12.3409 20.2503 16.2737 20.2503H77.7649C81.6591 20.2503 83.8631 22.3737 83.8631 26.4661V29.7695H10.1369V26.4661ZM16.2737 73.7548C12.3392 73.7548 10.1369 71.6683 10.1369 67.5776V38.6995H83.8631V67.5759C83.8631 71.6666 81.6591 73.7531 77.7649 73.7531L16.2737 73.7548ZM20.7975 62.1072H30.4375C32.759 62.1072 34.2932 60.5729 34.2932 58.3304V51.0521C34.2932 48.8498 32.759 47.2753 30.4375 47.2753H20.7975C18.476 47.2753 16.9418 48.8498 16.9418 51.0521V58.3304C16.9418 60.5729 18.476 62.1072 20.7975 62.1072Z" fill="#EBEBEB"/>
</svg>
